<?xml version="1.0" encoding="UTF-8" standalone="no"?>
<!DOCTYPE svg PUBLIC "-//W3C//DTD SVG 1.1//EN"
 "http://www.w3.org/Graphics/SVG/1.1/DTD/svg11.dtd">
<!-- Generated by graphviz version 12.2.1 (0)
 -->
<!-- Pages: 1 -->
<svg width="681pt" height="128pt"
 viewBox="0.00 0.00 680.75 128.00" xmlns="http://www.w3.org/2000/svg" xmlns:xlink="http://www.w3.org/1999/xlink">
<g id="graph0" class="graph" transform="scale(1 1) rotate(0) translate(4 124)">
<polygon fill="white" stroke="none" points="-4,4 -4,-124 676.75,-124 676.75,4 -4,4"/>
<!-- 140736423459344 -->
<g id="node1" class="node">
<title>140736423459344</title>
<polygon fill="none" stroke="black" points="539.5,-27.5 539.5,-63.5 672.75,-63.5 672.75,-27.5 539.5,-27.5"/>
<text text-anchor="middle" x="549.75" y="-41.2" font-family="Times,serif" font-size="14.00"> </text>
<polyline fill="none" stroke="black" points="560,-28.25 560,-63.5"/>
<text text-anchor="middle" x="616.38" y="-41.2" font-family="Times,serif" font-size="14.00">value: 4.0000</text>
</g>
<!-- 140736423459344addition -->
<g id="node2" class="node">
<title>140736423459344addition</title>
<ellipse fill="none" stroke="black" cx="476.5" cy="-45.5" rx="27" ry="18"/>
<text text-anchor="middle" x="476.5" y="-40.83" font-family="Times,serif" font-size="14.00">+</text>
</g>
<!-- 140736423459344addition&#45;&gt;140736423459344 -->
<g id="edge1" class="edge">
<title>140736423459344addition&#45;&gt;140736423459344</title>
<path fill="none" stroke="black" d="M503.94,-45.5C511.15,-45.5 519.34,-45.5 527.87,-45.5"/>
<polygon fill="black" stroke="black" points="527.7,-49 537.7,-45.5 527.7,-42 527.7,-49"/>
</g>
<!-- 140736423459296 -->
<g id="node3" class="node">
<title>140736423459296</title>
<polygon fill="none" stroke="black" points="272,-55.5 272,-91.5 409.75,-91.5 409.75,-55.5 272,-55.5"/>
<text text-anchor="middle" x="282.25" y="-69.2" font-family="Times,serif" font-size="14.00"> </text>
<polyline fill="none" stroke="black" points="292.5,-56.25 292.5,-91.5"/>
<text text-anchor="middle" x="351.12" y="-69.2" font-family="Times,serif" font-size="14.00">value: &#45;6.0000</text>
</g>
<!-- 140736423459296&#45;&gt;140736423459344addition -->
<g id="edge2" class="edge">
<title>140736423459296&#45;&gt;140736423459344addition</title>
<path fill="none" stroke="black" d="M409.86,-59.25C420.02,-57.13 430.13,-55.01 439.28,-53.09"/>
<polygon fill="black" stroke="black" points="439.72,-56.57 448.79,-51.1 438.28,-49.72 439.72,-56.57"/>
</g>
<!-- 140736423459056 -->
<g id="node4" class="node">
<title>140736423459056</title>
<polygon fill="none" stroke="black" points="268.25,-0.5 268.25,-36.5 413.5,-36.5 413.5,-0.5 268.25,-0.5"/>
<text text-anchor="middle" x="280" y="-14.2" font-family="Times,serif" font-size="14.00">c</text>
<polyline fill="none" stroke="black" points="291.75,-1.25 291.75,-36.5"/>
<text text-anchor="middle" x="352.62" y="-14.2" font-family="Times,serif" font-size="14.00">value: 10.0000</text>
</g>
<!-- 140736423459056&#45;&gt;140736423459344addition -->
<g id="edge3" class="edge">
<title>140736423459056&#45;&gt;140736423459344addition</title>
<path fill="none" stroke="black" d="M413.77,-33.03C422.57,-34.81 431.25,-36.56 439.2,-38.17"/>
<polygon fill="black" stroke="black" points="438.27,-41.55 448.76,-40.1 439.65,-34.69 438.27,-41.55"/>
</g>
<!-- 140736423459296multiplication -->
<g id="node5" class="node">
<title>140736423459296multiplication</title>
<ellipse fill="none" stroke="black" cx="205.25" cy="-73.5" rx="27" ry="18"/>
<text text-anchor="middle" x="205.25" y="-68.83" font-family="Times,serif" font-size="14.00">*</text>
</g>
<!-- 140736423459296multiplication&#45;&gt;140736423459296 -->
<g id="edge4" class="edge">
<title>140736423459296multiplication&#45;&gt;140736423459296</title>
<path fill="none" stroke="black" d="M232.65,-73.5C240.88,-73.5 250.43,-73.5 260.36,-73.5"/>
<polygon fill="black" stroke="black" points="260.18,-77 270.18,-73.5 260.18,-70 260.18,-77"/>
</g>
<!-- 140736426579232 -->
<g id="node6" class="node">
<title>140736426579232</title>
<polygon fill="none" stroke="black" points="0,-83.5 0,-119.5 142.25,-119.5 142.25,-83.5 0,-83.5"/>
<text text-anchor="middle" x="12.5" y="-97.2" font-family="Times,serif" font-size="14.00">b</text>
<polyline fill="none" stroke="black" points="25,-84.25 25,-119.5"/>
<text text-anchor="middle" x="83.62" y="-97.2" font-family="Times,serif" font-size="14.00">value: &#45;3.0000</text>
</g>
<!-- 140736426579232&#45;&gt;140736423459296multiplication -->
<g id="edge5" class="edge">
<title>140736426579232&#45;&gt;140736423459296multiplication</title>
<path fill="none" stroke="black" d="M142.44,-86.6C151.3,-84.72 160.06,-82.86 168.08,-81.17"/>
<polygon fill="black" stroke="black" points="168.67,-84.62 177.73,-79.12 167.22,-77.77 168.67,-84.62"/>
</g>
<!-- 140736423456368 -->
<g id="node7" class="node">
<title>140736423456368</title>
<polygon fill="none" stroke="black" points="2.62,-28.5 2.62,-64.5 139.62,-64.5 139.62,-28.5 2.62,-28.5"/>
<text text-anchor="middle" x="14.75" y="-42.2" font-family="Times,serif" font-size="14.00">a</text>
<polyline fill="none" stroke="black" points="26.88,-29.25 26.88,-64.5"/>
<text text-anchor="middle" x="83.25" y="-42.2" font-family="Times,serif" font-size="14.00">value: 2.0000</text>
</g>
<!-- 140736423456368&#45;&gt;140736423459296multiplication -->
<g id="edge6" class="edge">
<title>140736423456368&#45;&gt;140736423459296multiplication</title>
<path fill="none" stroke="black" d="M140.12,-60.4C149.69,-62.35 159.2,-64.29 167.85,-66.06"/>
<polygon fill="black" stroke="black" points="167.06,-69.47 177.56,-68.05 168.46,-62.61 167.06,-69.47"/>
</g>
</g>
</svg>
