<?xml version="1.0" encoding="UTF-8" standalone="no"?>
<!DOCTYPE svg PUBLIC "-//W3C//DTD SVG 1.1//EN"
 "http://www.w3.org/Graphics/SVG/1.1/DTD/svg11.dtd">
<!-- Generated by graphviz version 12.2.1 (0)
 -->
<!-- Pages: 1 -->
<svg width="1034pt" height="156pt"
 viewBox="0.00 0.00 1033.75 156.00" xmlns="http://www.w3.org/2000/svg" xmlns:xlink="http://www.w3.org/1999/xlink">
<g id="graph0" class="graph" transform="scale(1 1) rotate(0) translate(4 152)">
<polygon fill="white" stroke="none" points="-4,4 -4,-152 1029.75,-152 1029.75,4 -4,4"/>
<!-- 140736423328992 -->
<g id="node1" class="node">
<title>140736423328992</title>
<polygon fill="none" stroke="black" points="836.25,-27.5 836.25,-63.5 1025.75,-63.5 1025.75,-27.5 836.25,-27.5"/>
<text text-anchor="middle" x="872.38" y="-41.2" font-family="Times,serif" font-size="14.00">a(b+cd)</text>
<polyline fill="none" stroke="black" points="908.5,-28.25 908.5,-63.5"/>
<text text-anchor="middle" x="967.12" y="-41.2" font-family="Times,serif" font-size="14.00">value: &#45;8.0000</text>
</g>
<!-- 140736423328992multiplication -->
<g id="node2" class="node">
<title>140736423328992multiplication</title>
<ellipse fill="none" stroke="black" cx="773.25" cy="-45.5" rx="27" ry="18"/>
<text text-anchor="middle" x="773.25" y="-40.83" font-family="Times,serif" font-size="14.00">*</text>
</g>
<!-- 140736423328992multiplication&#45;&gt;140736423328992 -->
<g id="edge1" class="edge">
<title>140736423328992multiplication&#45;&gt;140736423328992</title>
<path fill="none" stroke="black" d="M800.67,-45.5C807.81,-45.5 815.99,-45.5 824.7,-45.5"/>
<polygon fill="black" stroke="black" points="824.46,-49 834.46,-45.5 824.46,-42 824.46,-49"/>
</g>
<!-- 140736423329040 -->
<g id="node3" class="node">
<title>140736423329040</title>
<polygon fill="none" stroke="black" points="544,-55.5 544,-91.5 710.25,-91.5 710.25,-55.5 544,-55.5"/>
<text text-anchor="middle" x="570.75" y="-69.2" font-family="Times,serif" font-size="14.00">b+cd</text>
<polyline fill="none" stroke="black" points="597.5,-56.25 597.5,-91.5"/>
<text text-anchor="middle" x="653.88" y="-69.2" font-family="Times,serif" font-size="14.00">value: 4.0000</text>
</g>
<!-- 140736423329040&#45;&gt;140736423328992multiplication -->
<g id="edge2" class="edge">
<title>140736423329040&#45;&gt;140736423328992multiplication</title>
<path fill="none" stroke="black" d="M710.71,-57.46C719.4,-55.77 727.88,-54.12 735.63,-52.61"/>
<polygon fill="black" stroke="black" points="736.13,-56.08 745.28,-50.74 734.79,-49.21 736.13,-56.08"/>
</g>
<!-- 140736425147808 -->
<g id="node4" class="node">
<title>140736425147808</title>
<polygon fill="none" stroke="black" points="556.38,-0.5 556.38,-36.5 697.88,-36.5 697.88,-0.5 556.38,-0.5"/>
<text text-anchor="middle" x="568.5" y="-14.2" font-family="Times,serif" font-size="14.00">a</text>
<polyline fill="none" stroke="black" points="580.62,-1.25 580.62,-36.5"/>
<text text-anchor="middle" x="639.25" y="-14.2" font-family="Times,serif" font-size="14.00">value: &#45;2.0000</text>
</g>
<!-- 140736425147808&#45;&gt;140736423328992multiplication -->
<g id="edge3" class="edge">
<title>140736425147808&#45;&gt;140736423328992multiplication</title>
<path fill="none" stroke="black" d="M698.08,-31.6C711.06,-34.04 724.14,-36.49 735.63,-38.64"/>
<polygon fill="black" stroke="black" points="734.98,-42.08 745.45,-40.48 736.27,-35.2 734.98,-42.08"/>
</g>
<!-- 140736423329040addition -->
<g id="node5" class="node">
<title>140736423329040addition</title>
<ellipse fill="none" stroke="black" cx="481" cy="-73.5" rx="27" ry="18"/>
<text text-anchor="middle" x="481" y="-68.83" font-family="Times,serif" font-size="14.00">+</text>
</g>
<!-- 140736423329040addition&#45;&gt;140736423329040 -->
<g id="edge4" class="edge">
<title>140736423329040addition&#45;&gt;140736423329040</title>
<path fill="none" stroke="black" d="M508.43,-73.5C515.55,-73.5 523.68,-73.5 532.27,-73.5"/>
<polygon fill="black" stroke="black" points="532.26,-77 542.26,-73.5 532.26,-70 532.26,-77"/>
</g>
<!-- 140736423324672 -->
<g id="node6" class="node">
<title>140736423324672</title>
<polygon fill="none" stroke="black" points="268.25,-83.5 268.25,-119.5 418,-119.5 418,-83.5 268.25,-83.5"/>
<text text-anchor="middle" x="284.5" y="-97.2" font-family="Times,serif" font-size="14.00">cd</text>
<polyline fill="none" stroke="black" points="300.75,-84.25 300.75,-119.5"/>
<text text-anchor="middle" x="359.38" y="-97.2" font-family="Times,serif" font-size="14.00">value: &#45;6.0000</text>
</g>
<!-- 140736423324672&#45;&gt;140736423329040addition -->
<g id="edge5" class="edge">
<title>140736423324672&#45;&gt;140736423329040addition</title>
<path fill="none" stroke="black" d="M418.42,-86.19C427.25,-84.37 435.93,-82.58 443.86,-80.95"/>
<polygon fill="black" stroke="black" points="444.31,-84.43 453.4,-78.98 442.9,-77.57 444.31,-84.43"/>
</g>
<!-- 140736423189856 -->
<g id="node7" class="node">
<title>140736423189856</title>
<polygon fill="none" stroke="black" points="269.75,-28.5 269.75,-64.5 416.5,-64.5 416.5,-28.5 269.75,-28.5"/>
<text text-anchor="middle" x="282.25" y="-42.2" font-family="Times,serif" font-size="14.00">b</text>
<polyline fill="none" stroke="black" points="294.75,-29.25 294.75,-64.5"/>
<text text-anchor="middle" x="355.62" y="-42.2" font-family="Times,serif" font-size="14.00">value: 10.0000</text>
</g>
<!-- 140736423189856&#45;&gt;140736423329040addition -->
<g id="edge6" class="edge">
<title>140736423189856&#45;&gt;140736423329040addition</title>
<path fill="none" stroke="black" d="M416.84,-60.95C426.1,-62.79 435.24,-64.61 443.58,-66.26"/>
<polygon fill="black" stroke="black" points="442.77,-69.67 453.26,-68.19 444.13,-62.8 442.77,-69.67"/>
</g>
<!-- 140736423324672multiplication -->
<g id="node8" class="node">
<title>140736423324672multiplication</title>
<ellipse fill="none" stroke="black" cx="205.25" cy="-101.5" rx="27" ry="18"/>
<text text-anchor="middle" x="205.25" y="-96.83" font-family="Times,serif" font-size="14.00">*</text>
</g>
<!-- 140736423324672multiplication&#45;&gt;140736423324672 -->
<g id="edge7" class="edge">
<title>140736423324672multiplication&#45;&gt;140736423324672</title>
<path fill="none" stroke="black" d="M232.45,-101.5C239.63,-101.5 247.84,-101.5 256.45,-101.5"/>
<polygon fill="black" stroke="black" points="256.44,-105 266.44,-101.5 256.44,-98 256.44,-105"/>
</g>
<!-- 140736423054992 -->
<g id="node9" class="node">
<title>140736423054992</title>
<polygon fill="none" stroke="black" points="0,-111.5 0,-147.5 142.25,-147.5 142.25,-111.5 0,-111.5"/>
<text text-anchor="middle" x="12.5" y="-125.2" font-family="Times,serif" font-size="14.00">d</text>
<polyline fill="none" stroke="black" points="25,-112.25 25,-147.5"/>
<text text-anchor="middle" x="83.62" y="-125.2" font-family="Times,serif" font-size="14.00">value: &#45;3.0000</text>
</g>
<!-- 140736423054992&#45;&gt;140736423324672multiplication -->
<g id="edge8" class="edge">
<title>140736423054992&#45;&gt;140736423324672multiplication</title>
<path fill="none" stroke="black" d="M142.44,-114.6C151.3,-112.72 160.06,-110.86 168.08,-109.17"/>
<polygon fill="black" stroke="black" points="168.67,-112.62 177.73,-107.12 167.22,-105.77 168.67,-112.62"/>
</g>
<!-- 140736429064416 -->
<g id="node10" class="node">
<title>140736429064416</title>
<polygon fill="none" stroke="black" points="3,-56.5 3,-92.5 139.25,-92.5 139.25,-56.5 3,-56.5"/>
<text text-anchor="middle" x="14.75" y="-70.2" font-family="Times,serif" font-size="14.00">c</text>
<polyline fill="none" stroke="black" points="26.5,-57.25 26.5,-92.5"/>
<text text-anchor="middle" x="82.88" y="-70.2" font-family="Times,serif" font-size="14.00">value: 2.0000</text>
</g>
<!-- 140736429064416&#45;&gt;140736423324672multiplication -->
<g id="edge9" class="edge">
<title>140736429064416&#45;&gt;140736423324672multiplication</title>
<path fill="none" stroke="black" d="M139.74,-88.32C149.34,-90.28 158.9,-92.23 167.6,-94.01"/>
<polygon fill="black" stroke="black" points="166.88,-97.44 177.38,-96.01 168.28,-90.58 166.88,-97.44"/>
</g>
</g>
</svg>
