<?xml version="1.0" encoding="UTF-8" standalone="no"?>
<!DOCTYPE svg PUBLIC "-//W3C//DTD SVG 1.1//EN"
 "http://www.w3.org/Graphics/SVG/1.1/DTD/svg11.dtd">
<!-- Generated by graphviz version 12.2.1 (0)
 -->
<!-- Pages: 1 -->
<svg width="927pt" height="274pt"
 viewBox="0.00 0.00 927.00 273.75" xmlns="http://www.w3.org/2000/svg" xmlns:xlink="http://www.w3.org/1999/xlink">
<g id="graph0" class="graph" transform="scale(1 1) rotate(0) translate(4 269.75)">
<polygon fill="white" stroke="none" points="-4,4 -4,-269.75 923,-269.75 923,4 -4,4"/>
<!-- 140736423584512 -->
<g id="node1" class="node">
<title>140736423584512</title>
<polygon fill="none" stroke="black" points="783.75,-141.5 783.75,-217.25 919,-217.25 919,-141.5 783.75,-141.5"/>
<text text-anchor="middle" x="851.38" y="-199.95" font-family="Times,serif" font-size="14.00">a(b+cd)</text>
<polyline fill="none" stroke="black" points="783.75,-192 919,-192"/>
<text text-anchor="middle" x="851.38" y="-174.7" font-family="Times,serif" font-size="14.00">value: &#45;8.0000</text>
<polyline fill="none" stroke="black" points="783.75,-166.75 919,-166.75"/>
<text text-anchor="middle" x="851.38" y="-149.45" font-family="Times,serif" font-size="14.00">gradient: 0.0000</text>
</g>
<!-- 140736423584512multiplication -->
<g id="node2" class="node">
<title>140736423584512multiplication</title>
<ellipse fill="none" stroke="black" cx="720.75" cy="-179.38" rx="27" ry="18"/>
<text text-anchor="middle" x="720.75" y="-174.7" font-family="Times,serif" font-size="14.00">*</text>
</g>
<!-- 140736423584512multiplication&#45;&gt;140736423584512 -->
<g id="edge1" class="edge">
<title>140736423584512multiplication&#45;&gt;140736423584512</title>
<path fill="none" stroke="black" d="M748.09,-179.38C755.3,-179.38 763.49,-179.38 772.04,-179.38"/>
<polygon fill="black" stroke="black" points="771.9,-182.88 781.9,-179.38 771.9,-175.88 771.9,-182.88"/>
</g>
<!-- 140736423328800 -->
<g id="node3" class="node">
<title>140736423328800</title>
<polygon fill="none" stroke="black" points="522.5,-189.5 522.5,-265.25 657.75,-265.25 657.75,-189.5 522.5,-189.5"/>
<text text-anchor="middle" x="590.12" y="-247.95" font-family="Times,serif" font-size="14.00">a</text>
<polyline fill="none" stroke="black" points="522.5,-240 657.75,-240"/>
<text text-anchor="middle" x="590.12" y="-222.7" font-family="Times,serif" font-size="14.00">value: &#45;2.0000</text>
<polyline fill="none" stroke="black" points="522.5,-214.75 657.75,-214.75"/>
<text text-anchor="middle" x="590.12" y="-197.45" font-family="Times,serif" font-size="14.00">gradient: 0.0000</text>
</g>
<!-- 140736423328800&#45;&gt;140736423584512multiplication -->
<g id="edge2" class="edge">
<title>140736423328800&#45;&gt;140736423584512multiplication</title>
<path fill="none" stroke="black" d="M658.07,-202.39C667.75,-198.78 677.35,-195.2 685.99,-191.97"/>
<polygon fill="black" stroke="black" points="687.16,-195.27 695.3,-188.5 684.71,-188.72 687.16,-195.27"/>
</g>
<!-- 140736423584368 -->
<g id="node4" class="node">
<title>140736423584368</title>
<polygon fill="none" stroke="black" points="522.5,-94.5 522.5,-170.25 657.75,-170.25 657.75,-94.5 522.5,-94.5"/>
<text text-anchor="middle" x="590.12" y="-152.95" font-family="Times,serif" font-size="14.00">b+cd</text>
<polyline fill="none" stroke="black" points="522.5,-145 657.75,-145"/>
<text text-anchor="middle" x="590.12" y="-127.7" font-family="Times,serif" font-size="14.00">value: 4.0000</text>
<polyline fill="none" stroke="black" points="522.5,-119.75 657.75,-119.75"/>
<text text-anchor="middle" x="590.12" y="-102.45" font-family="Times,serif" font-size="14.00">gradient: 0.0000</text>
</g>
<!-- 140736423584368&#45;&gt;140736423584512multiplication -->
<g id="edge3" class="edge">
<title>140736423584368&#45;&gt;140736423584512multiplication</title>
<path fill="none" stroke="black" d="M658.07,-156.84C667.67,-160.34 677.18,-163.82 685.76,-166.96"/>
<polygon fill="black" stroke="black" points="684.41,-170.19 695.01,-170.33 686.82,-163.61 684.41,-170.19"/>
</g>
<!-- 140736423584368addition -->
<g id="node5" class="node">
<title>140736423584368addition</title>
<ellipse fill="none" stroke="black" cx="459.5" cy="-132.38" rx="27" ry="18"/>
<text text-anchor="middle" x="459.5" y="-127.7" font-family="Times,serif" font-size="14.00">+</text>
</g>
<!-- 140736423584368addition&#45;&gt;140736423584368 -->
<g id="edge4" class="edge">
<title>140736423584368addition&#45;&gt;140736423584368</title>
<path fill="none" stroke="black" d="M486.84,-132.38C494.05,-132.38 502.24,-132.38 510.79,-132.38"/>
<polygon fill="black" stroke="black" points="510.65,-135.88 520.65,-132.38 510.65,-128.88 510.65,-135.88"/>
</g>
<!-- 140736423584128 -->
<g id="node6" class="node">
<title>140736423584128</title>
<polygon fill="none" stroke="black" points="261.25,-142.5 261.25,-218.25 396.5,-218.25 396.5,-142.5 261.25,-142.5"/>
<text text-anchor="middle" x="328.88" y="-200.95" font-family="Times,serif" font-size="14.00">b</text>
<polyline fill="none" stroke="black" points="261.25,-193 396.5,-193"/>
<text text-anchor="middle" x="328.88" y="-175.7" font-family="Times,serif" font-size="14.00">value: 10.0000</text>
<polyline fill="none" stroke="black" points="261.25,-167.75 396.5,-167.75"/>
<text text-anchor="middle" x="328.88" y="-150.45" font-family="Times,serif" font-size="14.00">gradient: 0.0000</text>
</g>
<!-- 140736423584128&#45;&gt;140736423584368addition -->
<g id="edge5" class="edge">
<title>140736423584128&#45;&gt;140736423584368addition</title>
<path fill="none" stroke="black" d="M396.82,-155.39C406.5,-151.78 416.1,-148.2 424.74,-144.97"/>
<polygon fill="black" stroke="black" points="425.91,-148.27 434.05,-141.5 423.46,-141.72 425.91,-148.27"/>
</g>
<!-- 140736423584320 -->
<g id="node7" class="node">
<title>140736423584320</title>
<polygon fill="none" stroke="black" points="261.25,-47.5 261.25,-123.25 396.5,-123.25 396.5,-47.5 261.25,-47.5"/>
<text text-anchor="middle" x="328.88" y="-105.95" font-family="Times,serif" font-size="14.00">cd</text>
<polyline fill="none" stroke="black" points="261.25,-98 396.5,-98"/>
<text text-anchor="middle" x="328.88" y="-80.7" font-family="Times,serif" font-size="14.00">value: &#45;6.0000</text>
<polyline fill="none" stroke="black" points="261.25,-72.75 396.5,-72.75"/>
<text text-anchor="middle" x="328.88" y="-55.45" font-family="Times,serif" font-size="14.00">gradient: 0.0000</text>
</g>
<!-- 140736423584320&#45;&gt;140736423584368addition -->
<g id="edge6" class="edge">
<title>140736423584320&#45;&gt;140736423584368addition</title>
<path fill="none" stroke="black" d="M396.82,-109.84C406.42,-113.34 415.93,-116.82 424.51,-119.96"/>
<polygon fill="black" stroke="black" points="423.16,-123.19 433.76,-123.33 425.57,-116.61 423.16,-123.19"/>
</g>
<!-- 140736423584320multiplication -->
<g id="node8" class="node">
<title>140736423584320multiplication</title>
<ellipse fill="none" stroke="black" cx="198.25" cy="-85.38" rx="27" ry="18"/>
<text text-anchor="middle" x="198.25" y="-80.7" font-family="Times,serif" font-size="14.00">*</text>
</g>
<!-- 140736423584320multiplication&#45;&gt;140736423584320 -->
<g id="edge7" class="edge">
<title>140736423584320multiplication&#45;&gt;140736423584320</title>
<path fill="none" stroke="black" d="M225.59,-85.38C232.8,-85.38 240.99,-85.38 249.54,-85.38"/>
<polygon fill="black" stroke="black" points="249.4,-88.88 259.4,-85.38 249.4,-81.88 249.4,-88.88"/>
</g>
<!-- 140736423584272 -->
<g id="node9" class="node">
<title>140736423584272</title>
<polygon fill="none" stroke="black" points="0,-95.5 0,-171.25 135.25,-171.25 135.25,-95.5 0,-95.5"/>
<text text-anchor="middle" x="67.62" y="-153.95" font-family="Times,serif" font-size="14.00">d</text>
<polyline fill="none" stroke="black" points="0,-146 135.25,-146"/>
<text text-anchor="middle" x="67.62" y="-128.7" font-family="Times,serif" font-size="14.00">value: &#45;3.0000</text>
<polyline fill="none" stroke="black" points="0,-120.75 135.25,-120.75"/>
<text text-anchor="middle" x="67.62" y="-103.45" font-family="Times,serif" font-size="14.00">gradient: 0.0000</text>
</g>
<!-- 140736423584272&#45;&gt;140736423584320multiplication -->
<g id="edge8" class="edge">
<title>140736423584272&#45;&gt;140736423584320multiplication</title>
<path fill="none" stroke="black" d="M135.57,-108.39C145.25,-104.78 154.85,-101.2 163.49,-97.97"/>
<polygon fill="black" stroke="black" points="164.66,-101.27 172.8,-94.5 162.21,-94.72 164.66,-101.27"/>
</g>
<!-- 140736423584224 -->
<g id="node10" class="node">
<title>140736423584224</title>
<polygon fill="none" stroke="black" points="0,-0.5 0,-76.25 135.25,-76.25 135.25,-0.5 0,-0.5"/>
<text text-anchor="middle" x="67.62" y="-58.95" font-family="Times,serif" font-size="14.00">c</text>
<polyline fill="none" stroke="black" points="0,-51 135.25,-51"/>
<text text-anchor="middle" x="67.62" y="-33.7" font-family="Times,serif" font-size="14.00">value: 2.0000</text>
<polyline fill="none" stroke="black" points="0,-25.75 135.25,-25.75"/>
<text text-anchor="middle" x="67.62" y="-8.45" font-family="Times,serif" font-size="14.00">gradient: 0.0000</text>
</g>
<!-- 140736423584224&#45;&gt;140736423584320multiplication -->
<g id="edge9" class="edge">
<title>140736423584224&#45;&gt;140736423584320multiplication</title>
<path fill="none" stroke="black" d="M135.57,-62.84C145.17,-66.34 154.68,-69.82 163.26,-72.96"/>
<polygon fill="black" stroke="black" points="161.91,-76.19 172.51,-76.33 164.32,-69.61 161.91,-76.19"/>
</g>
</g>
</svg>
