<?xml version="1.0" encoding="UTF-8" standalone="no"?>
<!DOCTYPE svg PUBLIC "-//W3C//DTD SVG 1.1//EN"
 "http://www.w3.org/Graphics/SVG/1.1/DTD/svg11.dtd">
<!-- Generated by graphviz version 12.2.1 (0)
 -->
<!-- Pages: 1 -->
<svg width="900pt" height="228pt"
 viewBox="0.00 0.00 900.00 227.75" xmlns="http://www.w3.org/2000/svg" xmlns:xlink="http://www.w3.org/1999/xlink">
<g id="graph0" class="graph" transform="scale(1 1) rotate(0) translate(4 223.75)">
<polygon fill="white" stroke="none" points="-4,4 -4,-223.75 896,-223.75 896,4 -4,4"/>
<!-- 140736421945392 -->
<g id="node1" class="node">
<title>140736421945392</title>
<polygon fill="none" stroke="black" points="756.75,-94.5 756.75,-170.25 892,-170.25 892,-94.5 756.75,-94.5"/>
<text text-anchor="middle" x="824.38" y="-152.95" font-family="Times,serif" font-size="14.00">a(b+cd)</text>
<polyline fill="none" stroke="black" points="756.75,-145 892,-145"/>
<text text-anchor="middle" x="824.38" y="-127.7" font-family="Times,serif" font-size="14.00">value: &#45;8.0000</text>
<polyline fill="none" stroke="black" points="756.75,-119.75 892,-119.75"/>
<text text-anchor="middle" x="824.38" y="-102.45" font-family="Times,serif" font-size="14.00">gradient: <tspan fill="red">1.0000</tspan></text>
</g>
<!-- 140736421945392multiplication -->
<g id="node2" class="node">
<title>140736421945392multiplication</title>
<ellipse fill="none" stroke="black" cx="693.75" cy="-132.38" rx="27" ry="18"/>
<text text-anchor="middle" x="693.75" y="-127.7" font-family="Times,serif" font-size="14.00">*</text>
</g>
<!-- 140736421945392multiplication&#45;&gt;140736421945392 -->
<g id="edge1" class="edge">
<title>140736421945392multiplication&#45;&gt;140736421945392</title>
<path fill="none" stroke="black" d="M721.09,-132.38C728.3,-132.38 736.49,-132.38 745.04,-132.38"/>
<polygon fill="black" stroke="black" points="744.9,-135.88 754.9,-132.38 744.9,-128.88 744.9,-135.88"/>
</g>
<!-- 140736421938480 -->
<g id="node3" class="node">
<title>140736421938480</title>
<polygon fill="none" stroke="black" points="493.25,-142.5 493.25,-218.25 628.5,-218.25 628.5,-142.5 493.25,-142.5"/>
<text text-anchor="middle" x="560.88" y="-200.95" font-family="Times,serif" font-size="14.00">a</text>
<polyline fill="none" stroke="black" points="493.25,-193 628.5,-193"/>
<text text-anchor="middle" x="560.88" y="-175.7" font-family="Times,serif" font-size="14.00">value: &#45;2.0000</text>
<polyline fill="none" stroke="black" points="493.25,-167.75 628.5,-167.75"/>
<text text-anchor="middle" x="560.88" y="-150.45" font-family="Times,serif" font-size="14.00">gradient: <tspan fill="red">4.0000</tspan></text>
</g>
<!-- 140736421938480&#45;&gt;140736421945392multiplication -->
<g id="edge2" class="edge">
<title>140736421938480&#45;&gt;140736421945392multiplication</title>
<path fill="none" stroke="black" d="M628.85,-155.81C639.22,-152.01 649.54,-148.22 658.77,-144.84"/>
<polygon fill="black" stroke="black" points="659.8,-148.19 667.99,-141.46 657.39,-141.61 659.8,-148.19"/>
</g>
<!-- 140736421941216 -->
<g id="node4" class="node">
<title>140736421941216</title>
<polygon fill="none" stroke="black" points="491,-47.5 491,-123.25 630.75,-123.25 630.75,-47.5 491,-47.5"/>
<text text-anchor="middle" x="560.88" y="-105.95" font-family="Times,serif" font-size="14.00">b+cd</text>
<polyline fill="none" stroke="black" points="491,-98 630.75,-98"/>
<text text-anchor="middle" x="560.88" y="-80.7" font-family="Times,serif" font-size="14.00">value: 4.0000</text>
<polyline fill="none" stroke="black" points="491,-72.75 630.75,-72.75"/>
<text text-anchor="middle" x="560.88" y="-55.45" font-family="Times,serif" font-size="14.00">gradient: <tspan fill="red">&#45;2.0000</tspan></text>
</g>
<!-- 140736421941216&#45;&gt;140736421945392multiplication -->
<g id="edge3" class="edge">
<title>140736421941216&#45;&gt;140736421945392multiplication</title>
<path fill="none" stroke="black" d="M631.14,-110.25C640.78,-113.71 650.3,-117.13 658.88,-120.21"/>
<polygon fill="black" stroke="black" points="657.51,-123.44 668.1,-123.52 659.88,-116.85 657.51,-123.44"/>
</g>
<!-- 140736421941216addition -->
<g id="node5" class="node">
<title>140736421941216addition</title>
<ellipse fill="none" stroke="black" cx="428" cy="-85.38" rx="27" ry="18"/>
<text text-anchor="middle" x="428" y="-80.7" font-family="Times,serif" font-size="14.00">+</text>
</g>
<!-- 140736421941216addition&#45;&gt;140736421941216 -->
<g id="edge4" class="edge">
<title>140736421941216addition&#45;&gt;140736421941216</title>
<path fill="none" stroke="black" d="M455.48,-85.38C462.65,-85.38 470.8,-85.38 479.31,-85.38"/>
<polygon fill="black" stroke="black" points="479.13,-88.88 489.13,-85.38 479.13,-81.88 479.13,-88.88"/>
</g>
<!-- 140736421940592 -->
<g id="node6" class="node">
<title>140736421940592</title>
<polygon fill="none" stroke="black" points="245.5,-95.5 245.5,-171.25 362.75,-171.25 362.75,-95.5 245.5,-95.5"/>
<text text-anchor="middle" x="304.12" y="-153.95" font-family="Times,serif" font-size="14.00">cd</text>
<polyline fill="none" stroke="black" points="245.5,-146 362.75,-146"/>
<text text-anchor="middle" x="304.12" y="-128.7" font-family="Times,serif" font-size="14.00">value: &#45;6.0000</text>
<polyline fill="none" stroke="black" points="245.5,-120.75 362.75,-120.75"/>
<text text-anchor="middle" x="304.12" y="-103.45" font-family="Times,serif" font-size="14.00">gradient: ????</text>
</g>
<!-- 140736421940592&#45;&gt;140736421941216addition -->
<g id="edge5" class="edge">
<title>140736421940592&#45;&gt;140736421941216addition</title>
<path fill="none" stroke="black" d="M363.21,-110.5C373.69,-106.37 384.3,-102.19 393.76,-98.47"/>
<polygon fill="black" stroke="black" points="394.85,-101.8 402.87,-94.88 392.29,-95.29 394.85,-101.8"/>
</g>
<!-- 140736421942128 -->
<g id="node7" class="node">
<title>140736421942128</title>
<polygon fill="none" stroke="black" points="243.25,-0.5 243.25,-76.25 365,-76.25 365,-0.5 243.25,-0.5"/>
<text text-anchor="middle" x="304.12" y="-58.95" font-family="Times,serif" font-size="14.00">b</text>
<polyline fill="none" stroke="black" points="243.25,-51 365,-51"/>
<text text-anchor="middle" x="304.12" y="-33.7" font-family="Times,serif" font-size="14.00">value: 10.0000</text>
<polyline fill="none" stroke="black" points="243.25,-25.75 365,-25.75"/>
<text text-anchor="middle" x="304.12" y="-8.45" font-family="Times,serif" font-size="14.00">gradient: ????</text>
</g>
<!-- 140736421942128&#45;&gt;140736421941216addition -->
<g id="edge6" class="edge">
<title>140736421942128&#45;&gt;140736421941216addition</title>
<path fill="none" stroke="black" d="M365.35,-61.6C375.05,-65.34 384.77,-69.09 393.53,-72.47"/>
<polygon fill="black" stroke="black" points="392.05,-75.65 402.63,-75.98 394.56,-69.12 392.05,-75.65"/>
</g>
<!-- 140736421940592multiplication -->
<g id="node8" class="node">
<title>140736421940592multiplication</title>
<ellipse fill="none" stroke="black" cx="180.25" cy="-133.38" rx="27" ry="18"/>
<text text-anchor="middle" x="180.25" y="-128.7" font-family="Times,serif" font-size="14.00">*</text>
</g>
<!-- 140736421940592multiplication&#45;&gt;140736421940592 -->
<g id="edge7" class="edge">
<title>140736421940592multiplication&#45;&gt;140736421940592</title>
<path fill="none" stroke="black" d="M207.7,-133.38C215.56,-133.38 224.57,-133.38 233.84,-133.38"/>
<polygon fill="black" stroke="black" points="233.7,-136.88 243.7,-133.38 233.7,-129.88 233.7,-136.88"/>
</g>
<!-- 140736421942944 -->
<g id="node9" class="node">
<title>140736421942944</title>
<polygon fill="none" stroke="black" points="0,-143.5 0,-219.25 117.25,-219.25 117.25,-143.5 0,-143.5"/>
<text text-anchor="middle" x="58.62" y="-201.95" font-family="Times,serif" font-size="14.00">d</text>
<polyline fill="none" stroke="black" points="0,-194 117.25,-194"/>
<text text-anchor="middle" x="58.62" y="-176.7" font-family="Times,serif" font-size="14.00">value: &#45;3.0000</text>
<polyline fill="none" stroke="black" points="0,-168.75 117.25,-168.75"/>
<text text-anchor="middle" x="58.62" y="-151.45" font-family="Times,serif" font-size="14.00">gradient: ????</text>
</g>
<!-- 140736421942944&#45;&gt;140736421940592multiplication -->
<g id="edge8" class="edge">
<title>140736421942944&#45;&gt;140736421940592multiplication</title>
<path fill="none" stroke="black" d="M117.69,-158.08C127.4,-154.18 137.17,-150.26 145.98,-146.73"/>
<polygon fill="black" stroke="black" points="147.16,-150.02 155.14,-143.05 144.55,-143.53 147.16,-150.02"/>
</g>
<!-- 140736421944624 -->
<g id="node10" class="node">
<title>140736421944624</title>
<polygon fill="none" stroke="black" points="0.75,-48.5 0.75,-124.25 116.5,-124.25 116.5,-48.5 0.75,-48.5"/>
<text text-anchor="middle" x="58.62" y="-106.95" font-family="Times,serif" font-size="14.00">c</text>
<polyline fill="none" stroke="black" points="0.75,-99 116.5,-99"/>
<text text-anchor="middle" x="58.62" y="-81.7" font-family="Times,serif" font-size="14.00">value: 2.0000</text>
<polyline fill="none" stroke="black" points="0.75,-73.75 116.5,-73.75"/>
<text text-anchor="middle" x="58.62" y="-56.45" font-family="Times,serif" font-size="14.00">gradient: ????</text>
</g>
<!-- 140736421944624&#45;&gt;140736421940592multiplication -->
<g id="edge9" class="edge">
<title>140736421944624&#45;&gt;140736421940592multiplication</title>
<path fill="none" stroke="black" d="M116.98,-108.91C126.96,-112.83 137.03,-116.79 146.07,-120.34"/>
<polygon fill="black" stroke="black" points="144.53,-123.49 155.12,-123.89 147.09,-116.98 144.53,-123.49"/>
</g>
</g>
</svg>
