<?xml version="1.0" encoding="UTF-8" standalone="no"?>
<!DOCTYPE svg PUBLIC "-//W3C//DTD SVG 1.1//EN"
 "http://www.w3.org/Graphics/SVG/1.1/DTD/svg11.dtd">
<!-- Generated by graphviz version 12.2.1 (0)
 -->
<!-- Pages: 1 -->
<svg width="657pt" height="228pt"
 viewBox="0.00 0.00 656.75 227.75" xmlns="http://www.w3.org/2000/svg" xmlns:xlink="http://www.w3.org/1999/xlink">
<g id="graph0" class="graph" transform="scale(1 1) rotate(0) translate(4 223.75)">
<polygon fill="white" stroke="none" points="-4,4 -4,-223.75 652.75,-223.75 652.75,4 -4,4"/>
<!-- 140736420344896 -->
<g id="node1" class="node">
<title>140736420344896</title>
<polygon fill="none" stroke="black" points="513.5,-47.5 513.5,-123.25 648.75,-123.25 648.75,-47.5 513.5,-47.5"/>
<text text-anchor="middle" x="581.12" y="-105.95" font-family="Times,serif" font-size="14.00">a(b+cd)</text>
<polyline fill="none" stroke="black" points="513.5,-98 648.75,-98"/>
<text text-anchor="middle" x="581.12" y="-80.7" font-family="Times,serif" font-size="14.00">value: &#45;8.0000</text>
<polyline fill="none" stroke="black" points="513.5,-72.75 648.75,-72.75"/>
<text text-anchor="middle" x="581.12" y="-55.45" font-family="Times,serif" font-size="14.00">gradient: 1.0000</text>
</g>
<!-- 140736420344896multiplication -->
<g id="node2" class="node">
<title>140736420344896multiplication</title>
<ellipse fill="none" stroke="black" cx="450.5" cy="-85.38" rx="27" ry="18"/>
<text text-anchor="middle" x="450.5" y="-80.7" font-family="Times,serif" font-size="14.00">*</text>
</g>
<!-- 140736420344896multiplication&#45;&gt;140736420344896 -->
<g id="edge1" class="edge">
<title>140736420344896multiplication&#45;&gt;140736420344896</title>
<path fill="none" stroke="black" d="M477.84,-85.38C485.05,-85.38 493.24,-85.38 501.79,-85.38"/>
<polygon fill="black" stroke="black" points="501.65,-88.88 511.65,-85.38 501.65,-81.88 501.65,-88.88"/>
</g>
<!-- 140736420332416 -->
<g id="node3" class="node">
<title>140736420332416</title>
<polygon fill="none" stroke="black" points="247.75,-95.5 247.75,-171.25 387.5,-171.25 387.5,-95.5 247.75,-95.5"/>
<text text-anchor="middle" x="317.62" y="-153.95" font-family="Times,serif" font-size="14.00">b+cd</text>
<polyline fill="none" stroke="black" points="247.75,-146 387.5,-146"/>
<text text-anchor="middle" x="317.62" y="-128.7" font-family="Times,serif" font-size="14.00">value: 4.0000</text>
<polyline fill="none" stroke="black" points="247.75,-120.75 387.5,-120.75"/>
<text text-anchor="middle" x="317.62" y="-103.45" font-family="Times,serif" font-size="14.00">gradient: &#45;2.0000</text>
</g>
<!-- 140736420332416&#45;&gt;140736420344896multiplication -->
<g id="edge2" class="edge">
<title>140736420332416&#45;&gt;140736420344896multiplication</title>
<path fill="none" stroke="black" d="M387.89,-107.97C397.53,-104.44 407.05,-100.94 415.63,-97.8"/>
<polygon fill="black" stroke="black" points="416.67,-101.14 424.86,-94.41 414.26,-94.57 416.67,-101.14"/>
</g>
<!-- 140736423760176 -->
<g id="node4" class="node">
<title>140736423760176</title>
<polygon fill="none" stroke="black" points="250,-0.5 250,-76.25 385.25,-76.25 385.25,-0.5 250,-0.5"/>
<text text-anchor="middle" x="317.62" y="-58.95" font-family="Times,serif" font-size="14.00">a</text>
<polyline fill="none" stroke="black" points="250,-51 385.25,-51"/>
<text text-anchor="middle" x="317.62" y="-33.7" font-family="Times,serif" font-size="14.00">value: &#45;2.0000</text>
<polyline fill="none" stroke="black" points="250,-25.75 385.25,-25.75"/>
<text text-anchor="middle" x="317.62" y="-8.45" font-family="Times,serif" font-size="14.00">gradient: 4.0000</text>
</g>
<!-- 140736423760176&#45;&gt;140736420344896multiplication -->
<g id="edge3" class="edge">
<title>140736423760176&#45;&gt;140736420344896multiplication</title>
<path fill="none" stroke="black" d="M385.6,-62.43C395.97,-66.15 406.29,-69.86 415.52,-73.17"/>
<polygon fill="black" stroke="black" points="414.14,-76.4 424.73,-76.48 416.51,-69.81 414.14,-76.4"/>
</g>
<!-- 140736420332416addition -->
<g id="node5" class="node">
<title>140736420332416addition</title>
<ellipse fill="none" stroke="black" cx="184.75" cy="-133.38" rx="27" ry="18"/>
<text text-anchor="middle" x="184.75" y="-128.7" font-family="Times,serif" font-size="14.00">+</text>
</g>
<!-- 140736420332416addition&#45;&gt;140736420332416 -->
<g id="edge4" class="edge">
<title>140736420332416addition&#45;&gt;140736420332416</title>
<path fill="none" stroke="black" d="M212.23,-133.38C219.4,-133.38 227.55,-133.38 236.06,-133.38"/>
<polygon fill="black" stroke="black" points="235.88,-136.88 245.88,-133.38 235.88,-129.88 235.88,-136.88"/>
</g>
<!-- 140736420333376 -->
<g id="node6" class="node">
<title>140736420333376</title>
<polygon fill="none" stroke="black" points="0,-143.5 0,-219.25 121.75,-219.25 121.75,-143.5 0,-143.5"/>
<text text-anchor="middle" x="60.88" y="-201.95" font-family="Times,serif" font-size="14.00">b</text>
<polyline fill="none" stroke="black" points="0,-194 121.75,-194"/>
<text text-anchor="middle" x="60.88" y="-176.7" font-family="Times,serif" font-size="14.00">value: 10.0000</text>
<polyline fill="none" stroke="black" points="0,-168.75 121.75,-168.75"/>
<text text-anchor="middle" x="60.88" y="-151.45" font-family="Times,serif" font-size="14.00">gradient: ????</text>
</g>
<!-- 140736420333376&#45;&gt;140736420332416addition -->
<g id="edge5" class="edge">
<title>140736420333376&#45;&gt;140736420332416addition</title>
<path fill="none" stroke="black" d="M122.1,-157.66C131.8,-153.84 141.52,-150.01 150.28,-146.56"/>
<polygon fill="black" stroke="black" points="151.37,-149.89 159.39,-142.97 148.8,-143.38 151.37,-149.89"/>
</g>
<!-- 140736420341584 -->
<g id="node7" class="node">
<title>140736420341584</title>
<polygon fill="none" stroke="black" points="2.25,-48.5 2.25,-124.25 119.5,-124.25 119.5,-48.5 2.25,-48.5"/>
<text text-anchor="middle" x="60.88" y="-106.95" font-family="Times,serif" font-size="14.00">cd</text>
<polyline fill="none" stroke="black" points="2.25,-99 119.5,-99"/>
<text text-anchor="middle" x="60.88" y="-81.7" font-family="Times,serif" font-size="14.00">value: &#45;6.0000</text>
<polyline fill="none" stroke="black" points="2.25,-73.75 119.5,-73.75"/>
<text text-anchor="middle" x="60.88" y="-56.45" font-family="Times,serif" font-size="14.00">gradient: ????</text>
</g>
<!-- 140736420341584&#45;&gt;140736420332416addition -->
<g id="edge6" class="edge">
<title>140736420341584&#45;&gt;140736420332416addition</title>
<path fill="none" stroke="black" d="M119.96,-108.77C130.36,-112.78 140.87,-116.84 150.27,-120.47"/>
<polygon fill="black" stroke="black" points="148.73,-123.62 159.32,-123.96 151.25,-117.09 148.73,-123.62"/>
</g>
</g>
</svg>
