<?xml version="1.0" encoding="UTF-8" standalone="no"?>
<!DOCTYPE svg PUBLIC "-//W3C//DTD SVG 1.1//EN"
 "http://www.w3.org/Graphics/SVG/1.1/DTD/svg11.dtd">
<!-- Generated by graphviz version 12.2.1 (0)
 -->
<!-- Pages: 1 -->
<svg width="918pt" height="274pt"
 viewBox="0.00 0.00 918.00 273.75" xmlns="http://www.w3.org/2000/svg" xmlns:xlink="http://www.w3.org/1999/xlink">
<g id="graph0" class="graph" transform="scale(1 1) rotate(0) translate(4 269.75)">
<polygon fill="white" stroke="none" points="-4,4 -4,-269.75 914,-269.75 914,4 -4,4"/>
<!-- 140736421953360 -->
<g id="node1" class="node">
<title>140736421953360</title>
<polygon fill="none" stroke="black" points="774.75,-141.5 774.75,-217.25 910,-217.25 910,-141.5 774.75,-141.5"/>
<text text-anchor="middle" x="842.38" y="-199.95" font-family="Times,serif" font-size="14.00">a(b+cd)</text>
<polyline fill="none" stroke="black" points="774.75,-192 910,-192"/>
<text text-anchor="middle" x="842.38" y="-174.7" font-family="Times,serif" font-size="14.00">value: &#45;8.0000</text>
<polyline fill="none" stroke="black" points="774.75,-166.75 910,-166.75"/>
<text text-anchor="middle" x="842.38" y="-149.45" font-family="Times,serif" font-size="14.00">gradient: 1.0000</text>
</g>
<!-- 140736421953360multiplication -->
<g id="node2" class="node">
<title>140736421953360multiplication</title>
<ellipse fill="none" stroke="black" cx="711.75" cy="-179.38" rx="27" ry="18"/>
<text text-anchor="middle" x="711.75" y="-174.7" font-family="Times,serif" font-size="14.00">*</text>
</g>
<!-- 140736421953360multiplication&#45;&gt;140736421953360 -->
<g id="edge1" class="edge">
<title>140736421953360multiplication&#45;&gt;140736421953360</title>
<path fill="none" stroke="black" d="M739.09,-179.38C746.3,-179.38 754.49,-179.38 763.04,-179.38"/>
<polygon fill="black" stroke="black" points="762.9,-182.88 772.9,-179.38 762.9,-175.88 762.9,-182.88"/>
</g>
<!-- 140736421952448 -->
<g id="node3" class="node">
<title>140736421952448</title>
<polygon fill="none" stroke="black" points="511.25,-189.5 511.25,-265.25 646.5,-265.25 646.5,-189.5 511.25,-189.5"/>
<text text-anchor="middle" x="578.88" y="-247.95" font-family="Times,serif" font-size="14.00">a</text>
<polyline fill="none" stroke="black" points="511.25,-240 646.5,-240"/>
<text text-anchor="middle" x="578.88" y="-222.7" font-family="Times,serif" font-size="14.00">value: &#45;2.0000</text>
<polyline fill="none" stroke="black" points="511.25,-214.75 646.5,-214.75"/>
<text text-anchor="middle" x="578.88" y="-197.45" font-family="Times,serif" font-size="14.00">gradient: 4.0000</text>
</g>
<!-- 140736421952448&#45;&gt;140736421953360multiplication -->
<g id="edge2" class="edge">
<title>140736421952448&#45;&gt;140736421953360multiplication</title>
<path fill="none" stroke="black" d="M646.85,-202.81C657.22,-199.01 667.54,-195.22 676.77,-191.84"/>
<polygon fill="black" stroke="black" points="677.8,-195.19 685.99,-188.46 675.39,-188.61 677.8,-195.19"/>
</g>
<!-- 140736421941312 -->
<g id="node4" class="node">
<title>140736421941312</title>
<polygon fill="none" stroke="black" points="509,-94.5 509,-170.25 648.75,-170.25 648.75,-94.5 509,-94.5"/>
<text text-anchor="middle" x="578.88" y="-152.95" font-family="Times,serif" font-size="14.00">b+cd</text>
<polyline fill="none" stroke="black" points="509,-145 648.75,-145"/>
<text text-anchor="middle" x="578.88" y="-127.7" font-family="Times,serif" font-size="14.00">value: 4.0000</text>
<polyline fill="none" stroke="black" points="509,-119.75 648.75,-119.75"/>
<text text-anchor="middle" x="578.88" y="-102.45" font-family="Times,serif" font-size="14.00">gradient: &#45;2.0000</text>
</g>
<!-- 140736421941312&#45;&gt;140736421953360multiplication -->
<g id="edge3" class="edge">
<title>140736421941312&#45;&gt;140736421953360multiplication</title>
<path fill="none" stroke="black" d="M649.14,-157.25C658.78,-160.71 668.3,-164.13 676.88,-167.21"/>
<polygon fill="black" stroke="black" points="675.51,-170.44 686.1,-170.52 677.88,-163.85 675.51,-170.44"/>
</g>
<!-- 140736421941312addition -->
<g id="node5" class="node">
<title>140736421941312addition</title>
<ellipse fill="none" stroke="black" cx="446" cy="-132.38" rx="27" ry="18"/>
<text text-anchor="middle" x="446" y="-127.7" font-family="Times,serif" font-size="14.00">+</text>
</g>
<!-- 140736421941312addition&#45;&gt;140736421941312 -->
<g id="edge4" class="edge">
<title>140736421941312addition&#45;&gt;140736421941312</title>
<path fill="none" stroke="black" d="M473.48,-132.38C480.65,-132.38 488.8,-132.38 497.31,-132.38"/>
<polygon fill="black" stroke="black" points="497.13,-135.88 507.13,-132.38 497.13,-128.88 497.13,-135.88"/>
</g>
<!-- 140736421940736 -->
<g id="node6" class="node">
<title>140736421940736</title>
<polygon fill="none" stroke="black" points="243.25,-142.5 243.25,-218.25 383,-218.25 383,-142.5 243.25,-142.5"/>
<text text-anchor="middle" x="313.12" y="-200.95" font-family="Times,serif" font-size="14.00">b</text>
<polyline fill="none" stroke="black" points="243.25,-193 383,-193"/>
<text text-anchor="middle" x="313.12" y="-175.7" font-family="Times,serif" font-size="14.00">value: 10.0000</text>
<polyline fill="none" stroke="black" points="243.25,-167.75 383,-167.75"/>
<text text-anchor="middle" x="313.12" y="-150.45" font-family="Times,serif" font-size="14.00">gradient: <tspan fill="red">&#45;2.0000</tspan></text>
</g>
<!-- 140736421940736&#45;&gt;140736421941312addition -->
<g id="edge5" class="edge">
<title>140736421940736&#45;&gt;140736421941312addition</title>
<path fill="none" stroke="black" d="M383.39,-154.97C393.03,-151.44 402.55,-147.94 411.13,-144.8"/>
<polygon fill="black" stroke="black" points="412.17,-148.14 420.36,-141.41 409.76,-141.57 412.17,-148.14"/>
</g>
<!-- 140736421952688 -->
<g id="node7" class="node">
<title>140736421952688</title>
<polygon fill="none" stroke="black" points="243.25,-47.5 243.25,-123.25 383,-123.25 383,-47.5 243.25,-47.5"/>
<text text-anchor="middle" x="313.12" y="-105.95" font-family="Times,serif" font-size="14.00">cd</text>
<polyline fill="none" stroke="black" points="243.25,-98 383,-98"/>
<text text-anchor="middle" x="313.12" y="-80.7" font-family="Times,serif" font-size="14.00">value: &#45;6.0000</text>
<polyline fill="none" stroke="black" points="243.25,-72.75 383,-72.75"/>
<text text-anchor="middle" x="313.12" y="-55.45" font-family="Times,serif" font-size="14.00">gradient: <tspan fill="red">&#45;2.0000</tspan></text>
</g>
<!-- 140736421952688&#45;&gt;140736421941312addition -->
<g id="edge6" class="edge">
<title>140736421952688&#45;&gt;140736421941312addition</title>
<path fill="none" stroke="black" d="M383.39,-110.25C393.03,-113.71 402.55,-117.13 411.13,-120.21"/>
<polygon fill="black" stroke="black" points="409.76,-123.44 420.35,-123.52 412.13,-116.85 409.76,-123.44"/>
</g>
<!-- 140736421952688multiplication -->
<g id="node8" class="node">
<title>140736421952688multiplication</title>
<ellipse fill="none" stroke="black" cx="180.25" cy="-85.38" rx="27" ry="18"/>
<text text-anchor="middle" x="180.25" y="-80.7" font-family="Times,serif" font-size="14.00">*</text>
</g>
<!-- 140736421952688multiplication&#45;&gt;140736421952688 -->
<g id="edge7" class="edge">
<title>140736421952688multiplication&#45;&gt;140736421952688</title>
<path fill="none" stroke="black" d="M207.73,-85.38C214.9,-85.38 223.05,-85.38 231.56,-85.38"/>
<polygon fill="black" stroke="black" points="231.38,-88.88 241.38,-85.38 231.38,-81.88 231.38,-88.88"/>
</g>
<!-- 140736421949856 -->
<g id="node9" class="node">
<title>140736421949856</title>
<polygon fill="none" stroke="black" points="0.75,-95.5 0.75,-171.25 116.5,-171.25 116.5,-95.5 0.75,-95.5"/>
<text text-anchor="middle" x="58.62" y="-153.95" font-family="Times,serif" font-size="14.00">c</text>
<polyline fill="none" stroke="black" points="0.75,-146 116.5,-146"/>
<text text-anchor="middle" x="58.62" y="-128.7" font-family="Times,serif" font-size="14.00">value: 2.0000</text>
<polyline fill="none" stroke="black" points="0.75,-120.75 116.5,-120.75"/>
<text text-anchor="middle" x="58.62" y="-103.45" font-family="Times,serif" font-size="14.00">gradient: ????</text>
</g>
<!-- 140736421949856&#45;&gt;140736421952688multiplication -->
<g id="edge8" class="edge">
<title>140736421949856&#45;&gt;140736421952688multiplication</title>
<path fill="none" stroke="black" d="M116.98,-110.36C126.96,-106.36 137.03,-102.32 146.07,-98.69"/>
<polygon fill="black" stroke="black" points="147.14,-102.03 155.12,-95.06 144.54,-95.53 147.14,-102.03"/>
</g>
<!-- 140736421942512 -->
<g id="node10" class="node">
<title>140736421942512</title>
<polygon fill="none" stroke="black" points="0,-0.5 0,-76.25 117.25,-76.25 117.25,-0.5 0,-0.5"/>
<text text-anchor="middle" x="58.62" y="-58.95" font-family="Times,serif" font-size="14.00">d</text>
<polyline fill="none" stroke="black" points="0,-51 117.25,-51"/>
<text text-anchor="middle" x="58.62" y="-33.7" font-family="Times,serif" font-size="14.00">value: &#45;3.0000</text>
<polyline fill="none" stroke="black" points="0,-25.75 117.25,-25.75"/>
<text text-anchor="middle" x="58.62" y="-8.45" font-family="Times,serif" font-size="14.00">gradient: ????</text>
</g>
<!-- 140736421942512&#45;&gt;140736421952688multiplication -->
<g id="edge9" class="edge">
<title>140736421942512&#45;&gt;140736421952688multiplication</title>
<path fill="none" stroke="black" d="M117.69,-61.19C127.31,-64.97 137,-68.78 145.75,-72.21"/>
<polygon fill="black" stroke="black" points="144.26,-75.39 154.85,-75.79 146.82,-68.87 144.26,-75.39"/>
</g>
</g>
</svg>
