<?xml version="1.0" encoding="UTF-8" standalone="no"?>
<!DOCTYPE svg PUBLIC "-//W3C//DTD SVG 1.1//EN"
 "http://www.w3.org/Graphics/SVG/1.1/DTD/svg11.dtd">
<!-- Generated by graphviz version 12.2.1 (0)
 -->
<!-- Pages: 1 -->
<svg width="941pt" height="228pt"
 viewBox="0.00 0.00 940.50 227.75" xmlns="http://www.w3.org/2000/svg" xmlns:xlink="http://www.w3.org/1999/xlink">
<g id="graph0" class="graph" transform="scale(1 1) rotate(0) translate(4 223.75)">
<polygon fill="white" stroke="none" points="-4,4 -4,-223.75 936.5,-223.75 936.5,4 -4,4"/>
<!-- 140736421942896 -->
<g id="node1" class="node">
<title>140736421942896</title>
<polygon fill="none" stroke="black" points="797.25,-94.5 797.25,-170.25 932.5,-170.25 932.5,-94.5 797.25,-94.5"/>
<text text-anchor="middle" x="864.88" y="-152.95" font-family="Times,serif" font-size="14.00">a(b+cd)</text>
<polyline fill="none" stroke="black" points="797.25,-145 932.5,-145"/>
<text text-anchor="middle" x="864.88" y="-127.7" font-family="Times,serif" font-size="14.00">value: &#45;8.0000</text>
<polyline fill="none" stroke="black" points="797.25,-119.75 932.5,-119.75"/>
<text text-anchor="middle" x="864.88" y="-102.45" font-family="Times,serif" font-size="14.00">gradient: 1.0000</text>
</g>
<!-- 140736421942896multiplication -->
<g id="node2" class="node">
<title>140736421942896multiplication</title>
<ellipse fill="none" stroke="black" cx="734.25" cy="-132.38" rx="27" ry="18"/>
<text text-anchor="middle" x="734.25" y="-127.7" font-family="Times,serif" font-size="14.00">*</text>
</g>
<!-- 140736421942896multiplication&#45;&gt;140736421942896 -->
<g id="edge1" class="edge">
<title>140736421942896multiplication&#45;&gt;140736421942896</title>
<path fill="none" stroke="black" d="M761.59,-132.38C768.8,-132.38 776.99,-132.38 785.54,-132.38"/>
<polygon fill="black" stroke="black" points="785.4,-135.88 795.4,-132.38 785.4,-128.88 785.4,-135.88"/>
</g>
<!-- 140736421943328 -->
<g id="node3" class="node">
<title>140736421943328</title>
<polygon fill="none" stroke="black" points="533.75,-142.5 533.75,-218.25 669,-218.25 669,-142.5 533.75,-142.5"/>
<text text-anchor="middle" x="601.38" y="-200.95" font-family="Times,serif" font-size="14.00">a</text>
<polyline fill="none" stroke="black" points="533.75,-193 669,-193"/>
<text text-anchor="middle" x="601.38" y="-175.7" font-family="Times,serif" font-size="14.00">value: &#45;2.0000</text>
<polyline fill="none" stroke="black" points="533.75,-167.75 669,-167.75"/>
<text text-anchor="middle" x="601.38" y="-150.45" font-family="Times,serif" font-size="14.00">gradient: 4.0000</text>
</g>
<!-- 140736421943328&#45;&gt;140736421942896multiplication -->
<g id="edge2" class="edge">
<title>140736421943328&#45;&gt;140736421942896multiplication</title>
<path fill="none" stroke="black" d="M669.35,-155.81C679.72,-152.01 690.04,-148.22 699.27,-144.84"/>
<polygon fill="black" stroke="black" points="700.3,-148.19 708.49,-141.46 697.89,-141.61 700.3,-148.19"/>
</g>
<!-- 140736421950288 -->
<g id="node4" class="node">
<title>140736421950288</title>
<polygon fill="none" stroke="black" points="531.5,-47.5 531.5,-123.25 671.25,-123.25 671.25,-47.5 531.5,-47.5"/>
<text text-anchor="middle" x="601.38" y="-105.95" font-family="Times,serif" font-size="14.00">b+cd</text>
<polyline fill="none" stroke="black" points="531.5,-98 671.25,-98"/>
<text text-anchor="middle" x="601.38" y="-80.7" font-family="Times,serif" font-size="14.00">value: 4.0000</text>
<polyline fill="none" stroke="black" points="531.5,-72.75 671.25,-72.75"/>
<text text-anchor="middle" x="601.38" y="-55.45" font-family="Times,serif" font-size="14.00">gradient: &#45;2.0000</text>
</g>
<!-- 140736421950288&#45;&gt;140736421942896multiplication -->
<g id="edge3" class="edge">
<title>140736421950288&#45;&gt;140736421942896multiplication</title>
<path fill="none" stroke="black" d="M671.64,-110.25C681.28,-113.71 690.8,-117.13 699.38,-120.21"/>
<polygon fill="black" stroke="black" points="698.01,-123.44 708.6,-123.52 700.38,-116.85 698.01,-123.44"/>
</g>
<!-- 140736421950288addition -->
<g id="node5" class="node">
<title>140736421950288addition</title>
<ellipse fill="none" stroke="black" cx="468.5" cy="-85.38" rx="27" ry="18"/>
<text text-anchor="middle" x="468.5" y="-80.7" font-family="Times,serif" font-size="14.00">+</text>
</g>
<!-- 140736421950288addition&#45;&gt;140736421950288 -->
<g id="edge4" class="edge">
<title>140736421950288addition&#45;&gt;140736421950288</title>
<path fill="none" stroke="black" d="M495.98,-85.38C503.15,-85.38 511.3,-85.38 519.81,-85.38"/>
<polygon fill="black" stroke="black" points="519.63,-88.88 529.63,-85.38 519.63,-81.88 519.63,-88.88"/>
</g>
<!-- 140736421948416 -->
<g id="node6" class="node">
<title>140736421948416</title>
<polygon fill="none" stroke="black" points="265.75,-95.5 265.75,-171.25 405.5,-171.25 405.5,-95.5 265.75,-95.5"/>
<text text-anchor="middle" x="335.62" y="-153.95" font-family="Times,serif" font-size="14.00">cd</text>
<polyline fill="none" stroke="black" points="265.75,-146 405.5,-146"/>
<text text-anchor="middle" x="335.62" y="-128.7" font-family="Times,serif" font-size="14.00">value: &#45;6.0000</text>
<polyline fill="none" stroke="black" points="265.75,-120.75 405.5,-120.75"/>
<text text-anchor="middle" x="335.62" y="-103.45" font-family="Times,serif" font-size="14.00">gradient: &#45;2.0000</text>
</g>
<!-- 140736421948416&#45;&gt;140736421950288addition -->
<g id="edge5" class="edge">
<title>140736421948416&#45;&gt;140736421950288addition</title>
<path fill="none" stroke="black" d="M405.89,-107.97C415.53,-104.44 425.05,-100.94 433.63,-97.8"/>
<polygon fill="black" stroke="black" points="434.67,-101.14 442.86,-94.41 432.26,-94.57 434.67,-101.14"/>
</g>
<!-- 140736421950576 -->
<g id="node7" class="node">
<title>140736421950576</title>
<polygon fill="none" stroke="black" points="265.75,-0.5 265.75,-76.25 405.5,-76.25 405.5,-0.5 265.75,-0.5"/>
<text text-anchor="middle" x="335.62" y="-58.95" font-family="Times,serif" font-size="14.00">b</text>
<polyline fill="none" stroke="black" points="265.75,-51 405.5,-51"/>
<text text-anchor="middle" x="335.62" y="-33.7" font-family="Times,serif" font-size="14.00">value: 10.0000</text>
<polyline fill="none" stroke="black" points="265.75,-25.75 405.5,-25.75"/>
<text text-anchor="middle" x="335.62" y="-8.45" font-family="Times,serif" font-size="14.00">gradient: &#45;2.0000</text>
</g>
<!-- 140736421950576&#45;&gt;140736421950288addition -->
<g id="edge6" class="edge">
<title>140736421950576&#45;&gt;140736421950288addition</title>
<path fill="none" stroke="black" d="M405.89,-63.25C415.53,-66.71 425.05,-70.13 433.63,-73.21"/>
<polygon fill="black" stroke="black" points="432.26,-76.44 442.85,-76.52 434.63,-69.85 432.26,-76.44"/>
</g>
<!-- 140736421948416multiplication -->
<g id="node8" class="node">
<title>140736421948416multiplication</title>
<ellipse fill="none" stroke="black" cx="202.75" cy="-133.38" rx="27" ry="18"/>
<text text-anchor="middle" x="202.75" y="-128.7" font-family="Times,serif" font-size="14.00">*</text>
</g>
<!-- 140736421948416multiplication&#45;&gt;140736421948416 -->
<g id="edge7" class="edge">
<title>140736421948416multiplication&#45;&gt;140736421948416</title>
<path fill="none" stroke="black" d="M230.23,-133.38C237.4,-133.38 245.55,-133.38 254.06,-133.38"/>
<polygon fill="black" stroke="black" points="253.88,-136.88 263.88,-133.38 253.88,-129.88 253.88,-136.88"/>
</g>
<!-- 140736421952256 -->
<g id="node9" class="node">
<title>140736421952256</title>
<polygon fill="none" stroke="black" points="0,-143.5 0,-219.25 139.75,-219.25 139.75,-143.5 0,-143.5"/>
<text text-anchor="middle" x="69.88" y="-201.95" font-family="Times,serif" font-size="14.00">d</text>
<polyline fill="none" stroke="black" points="0,-194 139.75,-194"/>
<text text-anchor="middle" x="69.88" y="-176.7" font-family="Times,serif" font-size="14.00">value: &#45;3.0000</text>
<polyline fill="none" stroke="black" points="0,-168.75 139.75,-168.75"/>
<text text-anchor="middle" x="69.88" y="-151.45" font-family="Times,serif" font-size="14.00">gradient: <tspan fill="red">&#45;4.0000</tspan></text>
</g>
<!-- 140736421952256&#45;&gt;140736421948416multiplication -->
<g id="edge8" class="edge">
<title>140736421952256&#45;&gt;140736421948416multiplication</title>
<path fill="none" stroke="black" d="M140.14,-155.97C149.78,-152.44 159.3,-148.94 167.88,-145.8"/>
<polygon fill="black" stroke="black" points="168.92,-149.14 177.11,-142.41 166.51,-142.57 168.92,-149.14"/>
</g>
<!-- 140736421942608 -->
<g id="node10" class="node">
<title>140736421942608</title>
<polygon fill="none" stroke="black" points="2.25,-48.5 2.25,-124.25 137.5,-124.25 137.5,-48.5 2.25,-48.5"/>
<text text-anchor="middle" x="69.88" y="-106.95" font-family="Times,serif" font-size="14.00">c</text>
<polyline fill="none" stroke="black" points="2.25,-99 137.5,-99"/>
<text text-anchor="middle" x="69.88" y="-81.7" font-family="Times,serif" font-size="14.00">value: 2.0000</text>
<polyline fill="none" stroke="black" points="2.25,-73.75 137.5,-73.75"/>
<text text-anchor="middle" x="69.88" y="-56.45" font-family="Times,serif" font-size="14.00">gradient: <tspan fill="red">6.0000</tspan></text>
</g>
<!-- 140736421942608&#45;&gt;140736421948416multiplication -->
<g id="edge9" class="edge">
<title>140736421942608&#45;&gt;140736421948416multiplication</title>
<path fill="none" stroke="black" d="M137.85,-110.43C148.22,-114.15 158.54,-117.86 167.77,-121.17"/>
<polygon fill="black" stroke="black" points="166.39,-124.4 176.98,-124.48 168.76,-117.81 166.39,-124.4"/>
</g>
</g>
</svg>
